<svg width="19" height="14" viewBox="0 0 19 14" fill="none" xmlns="http://www.w3.org/2000/svg">
<path d="M10.0845 2.75825C12.9889 2.75825 14.6366 4.6805 14.8763 7.00242H14.9497C16.8187 7.00242 18.334 8.514 18.334 10.378C18.334 12.2425 16.8187 13.7537 14.9497 13.7537H5.21924C3.35016 13.7537 1.83491 12.2425 1.83491 10.378C1.83491 8.55113 3.29057 7.06292 5.10741 7.00425L5.29303 7.00242C5.53412 4.66538 7.17999 2.75825 10.0845 2.75825V2.75825ZM10.0845 3.90179C8.13195 3.90179 6.42924 5.48213 6.42924 7.66471C6.42924 8.01075 6.12858 8.28208 5.78437 8.28208H5.13307C3.9437 8.28208 2.97982 9.251 2.97982 10.4463C2.97982 11.6412 3.9437 12.6101 5.13262 12.6101H15.0354C16.2247 12.6101 17.1882 11.6412 17.1882 10.4463C17.1882 9.251 16.2247 8.28208 15.0354 8.28208H14.3845C14.0399 8.28208 13.7392 8.01075 13.7392 7.66517C13.7392 5.45417 12.037 3.90179 10.084 3.90179H10.0845ZM7.33308 4.98689e-07C8.03609 -0.00033716 8.72858 0.1708 9.35051 0.498576C9.97243 0.826351 10.505 1.30087 10.9021 1.881C10.379 1.81915 9.85054 1.81654 9.32683 1.87321C8.77335 1.3934 8.06557 1.129 7.33308 1.12842C5.82791 1.12842 4.54503 2.23896 4.28837 3.73908L4.14445 4.57783C4.12627 4.68452 4.07092 4.78133 3.98821 4.85112C3.9055 4.92092 3.80076 4.95919 3.69253 4.95917H2.80016C1.85462 4.95917 1.08828 5.74292 1.08828 6.71046C1.08828 7.21738 1.29912 7.67388 1.63507 7.99379C1.43576 8.29194 1.27498 8.61411 1.15657 8.95263C0.662937 8.56705 0.301957 8.03702 0.123988 7.43646C-0.0539801 6.8359 -0.0400606 6.19476 0.163805 5.60249C0.367671 5.01022 0.751315 4.49635 1.26122 4.13257C1.77113 3.76878 2.38187 3.57322 3.00824 3.57317H3.07332C3.25038 2.57201 3.77435 1.66518 4.55329 1.01179C5.33223 0.358403 6.31638 0.000188375 7.33308 4.98689e-07V4.98689e-07Z" fill="white"/>
</svg>
