<svg width="13" height="18" viewBox="0 0 13 18" fill="none" xmlns="http://www.w3.org/2000/svg">
<path d="M11.3272 7.55736L6.76981 0.300106C6.70369 0.2073 6.61634 0.131642 6.51505 0.0794395C6.41376 0.0272365 6.30145 0 6.1875 0C6.07355 0 5.96124 0.0272365 5.85995 0.0794395C5.75866 0.131642 5.67131 0.2073 5.60519 0.300106L1.02713 7.59173C0.391109 8.61766 0.0368265 9.79315 0 10.9997C0 12.6407 0.651895 14.2145 1.81228 15.3749C2.97266 16.5353 4.54647 17.1872 6.1875 17.1872C7.82853 17.1872 9.40234 16.5353 10.5627 15.3749C11.7231 14.2145 12.375 12.6407 12.375 10.9997C12.3355 9.7799 11.974 8.5923 11.3272 7.55736V7.55736ZM6.1875 15.8122C4.91165 15.8105 3.68852 15.303 2.78636 14.4008C1.88419 13.4986 1.37664 12.2755 1.375 10.9997C1.41154 10.0383 1.70033 9.10338 2.21238 8.28886L2.85519 7.26448L9.78106 14.1904C9.33124 14.7 8.77823 15.1082 8.1587 15.3879C7.53917 15.6676 6.86725 15.8125 6.1875 15.8129V15.8122Z" fill="white"/>
</svg>
