<svg width="19" height="16" viewBox="0 0 19 16" fill="none" xmlns="http://www.w3.org/2000/svg">
<path d="M15.2873 5.5C16.9736 5.5 18.3339 6.88875 18.3339 8.59375C18.3339 10.2988 16.9736 11.6875 15.2873 11.6875C15.2598 11.6875 15.2323 11.6861 15.2058 11.6834L15.1256 11.688H14.4087C14.5756 12.0372 14.6686 12.4268 14.6686 12.8379C14.6686 14.3715 13.4746 15.5925 11.9172 15.5925C10.4721 15.5925 9.66314 14.976 9.23689 13.9613C9.15604 13.7654 9.15597 13.5455 9.2367 13.3496C9.31743 13.1537 9.47239 12.9977 9.66776 12.9157C9.86312 12.8337 10.083 12.8323 10.2794 12.9118C10.4758 12.9914 10.6327 13.1454 10.7159 13.3403C10.9061 13.7926 11.1628 13.9883 11.9168 13.9883C12.5804 13.9883 13.0644 13.4933 13.0644 12.8379C13.0644 12.2375 12.5557 11.7283 11.9003 11.6898L11.8338 11.6875H0.801723C0.594778 11.6874 0.395878 11.6073 0.246595 11.464C0.0973129 11.3207 0.00920265 11.1252 0.00068096 10.9184C-0.00784073 10.7117 0.0638859 10.5096 0.200868 10.3545C0.337851 10.1994 0.529488 10.1032 0.735723 10.0861L0.801723 10.0833H15.1256C15.1531 10.0833 15.1806 10.0847 15.2071 10.0879L15.2213 10.0861L15.2873 10.0833C16.0803 10.0833 16.7297 9.42013 16.7297 8.59375C16.7297 7.76738 16.0798 7.10417 15.2873 7.10417C14.6448 7.10417 14.1177 7.49513 13.9742 8.09188C13.9501 8.19485 13.9059 8.29204 13.8442 8.37786C13.7824 8.46368 13.7042 8.53644 13.6142 8.59194C13.5242 8.64745 13.4241 8.68461 13.3197 8.70128C13.2153 8.71796 13.1086 8.71382 13.0057 8.6891C12.9029 8.66439 12.806 8.61958 12.7206 8.55727C12.6351 8.49496 12.5629 8.41636 12.5079 8.32601C12.453 8.23566 12.4164 8.13534 12.4004 8.03081C12.3844 7.92629 12.3892 7.81962 12.4145 7.71696C12.7363 6.37954 13.9224 5.5 15.2873 5.5V5.5ZM8.47881 0C9.49918 0.00413695 10.4772 0.408434 11.2027 1.12599C11.9281 1.84355 12.3431 2.81709 12.3584 3.83735C12.3737 4.85762 11.9881 5.84317 11.2845 6.58217C10.5809 7.32117 9.61547 7.75463 8.59568 7.78938L8.47881 7.79121L0.801723 7.79167C0.594817 7.79146 0.395996 7.7113 0.246803 7.56794C0.0976099 7.42458 0.00958695 7.22912 0.00112593 7.02238C-0.00733509 6.81565 0.0644206 6.61365 0.2014 6.45858C0.338379 6.30351 0.529985 6.20737 0.736181 6.19025L0.802181 6.1875L8.47926 6.18704C9.08138 6.17853 9.65595 5.93336 10.0787 5.50456C10.5015 5.07576 10.7385 4.49778 10.7385 3.8956C10.7385 3.29343 10.5015 2.71545 10.0787 2.28665C9.65595 1.85785 9.08138 1.61268 8.47926 1.60417C7.21976 1.60417 6.24168 2.50525 6.18989 3.69417L6.1876 3.79363C6.1876 4.00635 6.10309 4.21036 5.95267 4.36078C5.80225 4.5112 5.59824 4.59571 5.38551 4.59571C5.17279 4.59571 4.96878 4.5112 4.81836 4.36078C4.66794 4.21036 4.58343 4.00635 4.58343 3.79363C4.58343 1.65321 6.31501 0 8.47926 0H8.47881Z" fill="white"/>
</svg>
