<svg width="10" height="19" viewBox="0 0 10 19" fill="none" xmlns="http://www.w3.org/2000/svg">
<path d="M9.16667 13.75C9.16667 14.5313 8.96696 15.2996 8.58652 15.9819C8.20607 16.6643 7.65751 17.2381 6.99294 17.6488C6.32836 18.0595 5.56982 18.2936 4.78935 18.3287C4.00888 18.3638 3.23239 18.1988 2.53361 17.8495C1.83483 17.5001 1.23695 16.9779 0.796766 16.3324C0.356577 15.687 0.0886827 14.9397 0.0185212 14.1616C-0.0516403 13.3835 0.0782603 12.6004 0.395888 11.8866C0.713516 11.1728 1.20833 10.5521 1.83333 10.0833V2.75C1.83333 2.02065 2.12307 1.32118 2.63879 0.805456C3.15452 0.289731 3.85399 0 4.58333 0C5.31268 0 6.01215 0.289731 6.52788 0.805456C7.0436 1.32118 7.33333 2.02065 7.33333 2.75V10.0833C8.44617 10.9193 9.16667 12.2503 9.16667 13.75ZM6.23242 11.5491L5.5 10.9991V2.75C5.5 2.50688 5.40342 2.27373 5.23152 2.10182C5.05961 1.92991 4.82645 1.83333 4.58333 1.83333C4.34022 1.83333 4.10706 1.92991 3.93515 2.10182C3.76325 2.27373 3.66667 2.50688 3.66667 2.75V10.9991L2.93425 11.5491C2.47229 11.8953 2.13098 12.378 1.95868 12.929C1.78638 13.48 1.79184 14.0712 1.97427 14.6189C2.15671 15.1665 2.50687 15.6429 2.97515 15.9805C3.44342 16.3181 4.00606 16.4998 4.58333 16.4998C5.16061 16.4998 5.72325 16.3181 6.19152 15.9805C6.65979 15.6429 7.00996 15.1665 7.1924 14.6189C7.37483 14.0712 7.38029 13.48 7.20799 12.929C7.03569 12.378 6.69438 11.8953 6.23242 11.5491V11.5491ZM4.58333 15.5833C4.0971 15.5833 3.63079 15.3902 3.28697 15.0464C2.94316 14.7025 2.75 14.2362 2.75 13.75C2.75 13.2638 2.94316 12.7975 3.28697 12.4536C3.63079 12.1098 4.0971 11.9167 4.58333 11.9167C5.06957 11.9167 5.53588 12.1098 5.8797 12.4536C6.22351 12.7975 6.41667 13.2638 6.41667 13.75C6.41667 14.2362 6.22351 14.7025 5.8797 15.0464C5.53588 15.3902 5.06957 15.5833 4.58333 15.5833Z" fill="white"/>
</svg>
